# xmcd
#
# Track frame offsets:
#	150
#	17535
#	39627
#	70117
#	91822
#	115222
#	143452
#	167807
#	191047
#	219905
#	242297
#	275700
#
# Disc length: 3962 seconds
#
# Revision: 1
# Processed by: cddbd v1.4PL0 Copyright (c) Steve Scherf et al.
# Submitted via: audiograbber 1.81.02
#
DISCID=9c0f780c
DTITLE=G Pont - G Pont
DYEAR=1997
DGENRE=Blues
TTITLE0=G pont
TTITLE1=Túlélem
TTITLE2=Kezdjük újra blues
TTITLE3=Tiszta egeken szállj
TTITLE4=Új angyalok szívében
TTITLE5=Gödöllõ
TTITLE6=Némafilm
TTITLE7=Újra szól
TTITLE8=Idegenül
TTITLE9=Más fények
TTITLE10=Little Wing
TTITLE11=Zûrzavar a fürdõkádban
EXTD=
EXTT0=
EXTT1=
EXTT2=
EXTT3=
EXTT4=
EXTT5=
EXTT6=
EXTT7=
EXTT8=
EXTT9=
EXTT10=
EXTT11=
PLAYORDER=
